<svg id="copied" viewBox="0 0 42 48" fill="none" xmlns="http://www.w3.org/2000/svg">
<path d="M30 42V45.75C30 46.9927 28.9927 48 27.75 48H2.25C1.00734 48 0 46.9927 0 45.75V11.25C0 10.0073 1.00734 9 2.25 9H9V36.75C9 39.6449 11.3551 42 14.25 42H30ZM30 9.75V0H14.25C13.0073 0 12 1.00734 12 2.25V36.75C12 37.9927 13.0073 39 14.25 39H39.75C40.9927 39 42 37.9927 42 36.75V12H32.25C31.0125 12 30 10.9875 30 9.75ZM41.341 6.84103L35.159 0.658969C34.737 0.23704 34.1647 3.11996e-06 33.568 0L33 0V9H42V8.43197C42 7.83526 41.763 7.26298 41.341 6.84103V6.84103Z" fill="currentColor"/>
</svg>
