<svg id="copy" viewBox="0 0 42 48" fill="none" xmlns="http://www.w3.org/2000/svg">
<g clip-path="url(#clip0)">
<path d="M40.682 6.18197L35.818 1.31803C34.9741 0.474116 33.8295 6.24072e-06 32.6361 0L16.5 0C14.0147 0 12 2.01469 12 4.5V9H4.5C2.01469 9 0 11.0147 0 13.5V43.5C0 45.9853 2.01469 48 4.5 48H25.5C27.9853 48 30 45.9853 30 43.5V39H37.5C39.9853 39 42 36.9853 42 34.5V9.36394C42 8.17047 41.5259 7.02588 40.682 6.18197ZM24.9375 43.5H5.0625C4.91332 43.5 4.77024 43.4407 4.66475 43.3352C4.55926 43.2298 4.5 43.0867 4.5 42.9375V14.0625C4.5 13.9133 4.55926 13.7702 4.66475 13.6648C4.77024 13.5593 4.91332 13.5 5.0625 13.5H12V34.5C12 36.9853 14.0147 39 16.5 39H25.5V42.9375C25.5 43.0867 25.4407 43.2298 25.3352 43.3352C25.2298 43.4407 25.0867 43.5 24.9375 43.5ZM36.9375 34.5H17.0625C16.9133 34.5 16.7702 34.4407 16.6648 34.3352C16.5593 34.2298 16.5 34.0867 16.5 33.9375V5.0625C16.5 4.91332 16.5593 4.77024 16.6648 4.66475C16.7702 4.55926 16.9133 4.5 17.0625 4.5H27V12.75C27 13.9927 28.0073 15 29.25 15H37.5V33.9375C37.5 34.0867 37.4407 34.2298 37.3352 34.3352C37.2298 34.4407 37.0867 34.5 36.9375 34.5V34.5ZM37.5 10.5H31.5V4.5H32.403C32.5522 4.5 32.6952 4.55925 32.8008 4.66472L37.3353 9.19922C37.3875 9.25146 37.4289 9.31347 37.4572 9.38173C37.4855 9.44998 37.5 9.52313 37.5 9.597V10.5Z" fill="currentColor"/>
</g>
<defs>
<clipPath id="clip0">
<rect width="42" height="48" fill="currentColor"/>
</clipPath>
</defs>
</svg>
