<svg id="gmail" viewBox="0 0 169 128" fill="currentColor" xmlns="http://www.w3.org/2000/svg">
<g clip-path="url(#clip0)">
<path d="M157.594 127.733H10.6714C4.97474 127.733 0.17804 123.085 0.17804 117.238V11.0943C0.17738 5.39697 4.82431 0.599609 10.6714 0.599609H157.594C163.291 0.599609 168.089 5.2472 168.089 11.0943V117.238C168.089 123.085 163.441 127.733 157.594 127.733Z" fill="#E3E3E3"/>
<path opacity="0.1" d="M21.1661 127.733L83.9831 77.209L84.4331 74.5105L19.667 27.8855L19.5166 125.484L21.1661 127.733Z" fill="#231F20"/>
<path d="M10.6714 127.733C4.8243 127.733 0.177368 123.085 0.177368 117.238V10.944C0.177368 5.09758 4.8243 4.04785 10.6714 4.04785C16.5185 4.04785 21.1661 5.24736 21.1661 10.944V127.733H10.6714Z" fill="#D54B3D"/>
<path d="M10.6714 5.5469C18.1673 5.5469 19.667 7.79614 19.667 10.944V126.234H10.6714C5.72427 126.234 1.67643 122.186 1.67643 117.238V10.944C1.67643 7.64571 3.17548 5.5469 10.6714 5.5469ZM10.6714 4.04785C4.82431 4.04785 0.17804 5.24736 0.17804 10.944V117.239C0.17804 123.086 4.82497 127.733 10.6721 127.733H21.1661V10.944C21.1661 5.09758 16.5185 4.04785 10.6714 4.04785Z" fill="#D72B27"/>
<path d="M157.594 127.733H147.1V10.6445C147.1 4.79738 151.747 4.04785 157.594 4.04785C163.441 4.04785 168.089 4.79738 168.089 10.6445V117.389C168.089 123.085 163.441 127.733 157.594 127.733Z" fill="#D54B3D"/>
<path d="M157.594 5.5469C164.341 5.5469 166.589 6.89618 166.589 10.6445V117.389C166.589 122.336 162.541 126.384 157.594 126.384H148.599V10.6445C148.599 6.74641 150.848 5.5469 157.594 5.5469ZM157.594 4.04785C151.747 4.04785 147.1 4.79738 147.1 10.6445V127.883H157.594C163.441 127.883 168.089 123.235 168.089 117.389V10.6445C168.089 4.79738 163.441 4.04785 157.594 4.04785Z" fill="#D72B27"/>
<path d="M112.618 127.733L1.05548 15.3039L6.92369 17.6903L84.5827 73.6112L168.089 12.3777V117.388C168.089 123.085 163.441 127.733 157.594 127.733H112.618Z" fill="url(#paint0_linear)"/>
<path d="M83.983 77.2091L4.67443 19.6395C0.0268451 16.1914 -1.32243 9.59479 2.12565 4.9472C5.57505 0.299613 12.3208 -0.749459 17.1181 2.69862L84.1334 51.4231L151.597 2.09821C156.244 -1.34987 162.841 -0.300139 166.289 4.49722C169.737 9.14481 168.688 15.7414 163.89 19.1895L83.9823 77.2085L83.983 77.2091Z" fill="#D54B3D"/>
<path d="M157.594 1.49905C160.443 1.49905 163.141 2.84833 164.94 5.24668C167.789 9.29518 166.889 14.8421 162.991 17.8408L83.9831 75.4105L5.57449 18.4406C1.52665 15.4418 0.476919 9.74449 3.32525 5.84709C4.97473 3.59786 7.82306 2.09946 10.8212 2.09946C12.7702 2.09946 14.7192 2.69856 16.2183 3.89806L83.0838 52.4721L83.9831 53.0725L84.8824 52.4721L152.197 3.14854C153.847 2.09946 155.645 1.49905 157.594 1.49905ZM157.594 0C155.495 0 153.246 0.599752 151.448 1.94903L83.9831 51.2726L16.9678 2.54878C15.1699 1.1995 12.9213 0.599753 10.6721 0.599753C7.37374 0.599753 4.07543 2.0988 1.97663 4.94779C-1.32168 9.59472 0.0275989 16.1913 4.67519 19.6394L83.9837 77.3595L163.741 19.1901C168.388 15.742 169.438 9.29517 166.14 4.49781C164.041 1.49905 160.893 0 157.594 0Z" fill="#D72B27"/>
</g>
<defs>
<linearGradient id="paint0_linear" x1="1.06216" y1="70.0529" x2="168.142" y2="70.0529" gradientUnits="userSpaceOnUse">
<stop stop-opacity="0.1"/>
<stop offset="1" stop-opacity="0.2"/>
</linearGradient>
<clipPath id="clip0">
<rect width="168.933" height="128" fill="white"/>
</clipPath>
</defs>
</svg>
