<svg id="twitter" viewBox="0 0 129 128" fill="currentColor" xmlns="http://www.w3.org/2000/svg">
<path d="M64.2966 8C33.3716 8 8.29663 33.075 8.29663 64C8.29663 94.925 33.3716 120 64.2966 120C95.2216 120 120.297 94.925 120.297 64C120.297 33.075 95.2216 8 64.2966 8ZM91.2091 50.2125C91.2466 50.8 91.2466 51.4125 91.2466 52.0125C91.2466 70.3625 77.2716 91.5 51.7341 91.5C43.8591 91.5 36.5591 89.2125 30.4091 85.275C31.5341 85.4 32.6091 85.45 33.7591 85.45C40.2591 85.45 46.2341 83.25 50.9966 79.525C44.8966 79.4 39.7716 75.4 38.0216 69.9C40.1591 70.2125 42.0841 70.2125 44.2841 69.65C41.1432 69.0119 38.3201 67.306 36.2943 64.8223C34.2686 62.3385 33.1652 59.2301 33.1716 56.025V55.85C35.0091 56.8875 37.1716 57.525 39.4341 57.6125C37.5322 56.3449 35.9724 54.6276 34.893 52.6129C33.8137 50.5981 33.2482 48.3482 33.2466 46.0625C33.2466 43.475 33.9216 41.1125 35.1341 39.0625C38.6204 43.3542 42.9708 46.8643 47.9024 49.3646C52.8341 51.8649 58.2367 53.2994 63.7591 53.575C61.7966 44.1375 68.8466 36.5 77.3216 36.5C81.3216 36.5 84.9216 38.175 87.4591 40.875C90.5966 40.2875 93.5966 39.1125 96.2716 37.5375C95.2341 40.75 93.0591 43.4625 90.1716 45.175C92.9716 44.875 95.6716 44.1 98.1716 43.0125C96.2841 45.7875 93.9216 48.25 91.2091 50.2125V50.2125Z"/>
</svg>
